/* XPM */
static char *arrow_left[] = {
/* width height num_colors chars_per_pixel */
"16 16 3 1",
/* colors */
"  c None",
". c #00BFFF",
"+ c #0080FF",
/* pixels */
"                ",
"                ",
"     .          ",
"    ..          ",
"   ...          ",
"  ....          ",
" ...............",
" .+++++++++++...",
" ...............",
"  ....          ",
"   ...          ",
"    ..          ",
"     .          ",
"                ",
"                ",
"                "
};
