/* XPM */
static char *maze_bg_40[] = {
/* width height num_colors chars_per_pixel */
"40 40 6 1",
/* colors */
"  c #1a1a2e",
". c #16213e",
"+ c #0f3460",
"# c #533483",
"@ c #e94560",
"* c #0d0d1a",
/* pixels */
"****************************************",
"*......................................*",
"*.                                    .*",
"*.  ++++    ++++    ++++    ++++      .*",
"*.  ++++    ++++    ++++    ++++      .*",
"*.  ++++    ++++    ++++    ++++      .*",
"*.                                    .*",
"*.      ####    ####    ####          .*",
"*.      ####    ####    ####          .*",
"*.      ####    ####    ####          .*",
"*.                                    .*",
"*.  ++++    ++++    ++++    ++++      .*",
"*.  ++++    ++++    ++++    ++++      .*",
"*.  ++++    ++++    ++++    ++++      .*",
"*.                                    .*",
"*.      ####    ####    ####          .*",
"*.      ####    ####    ####          .*",
"*.      ####    ####    ####          .*",
"*.                                    .*",
"*.  ++++    ++++    ++++    ++++      .*",
"*.  ++++    ++++    ++++    ++++      .*",
"*.  ++++    ++++    ++++    ++++      .*",
"*.                                    .*",
"*.      ####    ####    ####          .*",
"*.      ####    ####    ####          .*",
"*.      ####    ####    ####          .*",
"*.                                    .*",
"*.  ++++    ++++    ++++    ++++      .*",
"*.  ++++    ++++    ++++    ++++      .*",
"*.  ++++    ++++    ++++    ++++      .*",
"*.                                    .*",
"*.      ####    ####    ####          .*",
"*.      ####    ####    ####          .*",
"*.      ####    ####    ####          .*",
"*.                                    .*",
"*.                                    .*",
"*.                                    .*",
"*......................................*",
"****************************************",
"****************************************"
};
