/* XPM */
static char *path_end[] = {
/* width height num_colors chars_per_pixel */
"16 16 4 1",
/* colors */
"  c None",
". c #FF0000",
"+ c #CC0000",
"# c #990000",
/* pixels */
"                ",
"      ....      ",
"     ......     ",
"    ..++++..    ",
"   ..+#..#+..   ",
"   .+#....#+.   ",
"   .+#....#+.   ",
"   .+######+.   ",
"   .+######+.   ",
"   .+#....#+.   ",
"   .+#....#+.   ",
"   ..+#..#+..   ",
"    ..++++..    ",
"     ......     ",
"      ....      ",
"                "
};
