/* XPM */
static char *player_idle1[] = {
/* width height num_colors chars_per_pixel */
"16 16 4 1",
/* colors */
"  c None",
". c #FFD700",
"+ c #FFA500",
"# c #8B4513",
/* pixels */
"      ....      ",
"     ......     ",
"    ..++++..    ",
"    .+....+.    ",
"    .+.  .+.    ",
"    .+....+.    ",
"    ..++++..    ",
"     ......     ",
"      ....      ",
"     ......     ",
"    ..####..    ",
"   ...####...   ",
"   . .####. .   ",
"      ####      ",
"      #  #      ",
"     ##  ##     "
};
