/* XPM */
static char *wall_1337_v2[] = {
/* width height num_colors chars_per_pixel */
"40 40 4 1",
/* colors */
"  c #0D0D0D",
". c #1E1E1E",
"@ c #39FF14",
"# c #00FF00",
/* pixels */
"@@@@@@@@@@@@@@@@@@@@@@@@@@@@@@@@@@@@@@@@",
"@......................................@",
"@.                                    .@",
"@.                                    .@",
"@.                                    .@",
"@.                                    .@",
"@.                                    .@",
"@.                                    .@",
"@.                                    .@",
"@.                                    .@",
"@.                                    .@",
"@.                                    .@",
"@.                                    .@",
"@.                                    .@",
"@.       #   ####  ####  #######      .@",
"@.       #      #     #      #        .@",
"@.       #     #     #      #         .@",
"@.       #    #     #      #          .@",
"@.       #   ####  ####   #           .@",
"@.       #      #     #   #           .@",
"@.       #      #     #   #           .@",
"@.       #### ####  ####  #           .@",
"@.                                    .@",
"@.                                    .@",
"@.                                    .@",
"@.                                    .@",
"@.                                    .@",
"@.                                    .@",
"@.                                    .@",
"@.                                    .@",
"@.                                    .@",
"@.                                    .@",
"@.                                    .@",
"@.                                    .@",
"@.                                    .@",
"@.                                    .@",
"@.                                    .@",
"@.                                    .@",
"@......................................@",
"@@@@@@@@@@@@@@@@@@@@@@@@@@@@@@@@@@@@@@@@"
};
